<svg xmlns="http://www.w3.org/2000/svg" width="885.983" height="158.313" viewBox="0 0 885.983 158.313">
  <path id="facebook" d="M881.583,257.9h29.48V210.2L952.2,257.9h36.072l-47.89-54.969,40.909-47.663H948.466l-37.4,43.93V102.213l-29.48,3.864ZM813.6,152.636c-32.728,0-55.455,22.013-55.455,53.929s22.727,53.929,55.455,53.929,55.455-22.013,55.455-53.929-22.728-53.929-55.455-53.929Zm0,82.728c-15.163,0-25.552-11.721-25.552-28.8s10.389-28.8,25.552-28.8,25.552,11.721,25.552,28.8S828.757,235.364,813.6,235.364ZM693.788,152.636c-32.727,0-55.455,22.013-55.455,53.929s22.728,53.929,55.455,53.929,55.455-22.013,55.455-53.929-22.727-53.929-55.455-53.929Zm0,82.728c-15.162,0-25.552-11.721-25.552-28.8s10.39-28.8,25.552-28.8,25.552,11.721,25.552,28.8S708.951,235.364,693.788,235.364ZM580.962,152.636c-13.636,0-24.935,5.357-32.013,15.162V102.213l-29.513,3.831v151.82h26.169l.519-15.844c6.981,11.818,19.481,18.474,34.838,18.474,27.988,0,48.475-22.728,48.475-53.929s-20.39-53.929-48.475-53.929Zm-6.98,82.728c-15.163,0-25.552-11.721-25.552-28.8s10.389-28.8,25.552-28.8,25.552,11.721,25.552,28.8S589.144,235.364,573.982,235.364Zm-113.638,1.331c-15.649,0-26.883-7.273-30.714-19.805h72.63a69.825,69.825,0,0,0,1.2-11.429c0-33.02-18.475-52.825-49.514-52.825-31.331,0-53.02,22.013-53.02,53.929,0,32.338,22.728,53.929,56.462,53.929,17.467,0,34.448-5.844,45.065-15.552l-10.617-18.7c-10.292,7.11-20.39,10.454-31.494,10.454Zm-6.591-61.137c13.637,0,22.338,8.279,22.338,21.1v.1H429.013c2.825-13.6,11.623-21.2,24.74-21.2Zm-98.994,84.968c15.26,0,30.2-5.844,40.714-15.974l-11.526-19.383c-8.182,6.364-17.467,9.8-26.266,9.8-16.364,0-27.273-11.429-27.273-28.377s10.909-28.377,27.273-28.377a42.2,42.2,0,0,1,24.026,8.085L393.428,166.5c-9.481-8.571-24.156-13.831-38.7-13.831-32.013,0-54.643,22.338-54.643,53.929C300.115,238.091,322.745,260.526,354.759,260.526ZM261.024,155.265l-.519,15.975c-6.981-11.916-19.481-18.572-34.838-18.572-28.085,0-48.475,22.728-48.475,53.929s20.52,53.929,48.475,53.929c15.357,0,27.889-6.656,34.838-18.474l.519,15.844h26.169V155.265H261.024Zm-28.377,80.1c-15.162,0-25.552-11.721-25.552-28.8s10.39-28.8,25.552-28.8,25.552,11.721,25.552,28.8-10.422,28.8-25.552,28.8Zm-57.663-79.906H148.458v-8.767c0-13.117,5.13-18.149,18.442-18.149,4.123,0,7.467.1,9.383.292v-22.5a89.636,89.636,0,0,0-17.63-2.013c-27.111,0-39.611,12.792-39.611,40.422v10.682H102.289v24.806h16.753v77.631H148.49v-77.6h21.949Z" transform="translate(-102.289 -102.213)" fill="#0866ff"/>
</svg>
